<?xml version="1.0" encoding="UTF-8" standalone="no"?>
<!-- Created with Inkscape (http://www.inkscape.org/) -->

<svg
   xmlns:dc="http://purl.org/dc/elements/1.1/"
   xmlns:cc="http://creativecommons.org/ns#"
   xmlns:rdf="http://www.w3.org/1999/02/22-rdf-syntax-ns#"
   xmlns:svg="http://www.w3.org/2000/svg"
   xmlns="http://www.w3.org/2000/svg"
   xmlns:xlink="http://www.w3.org/1999/xlink"
   xmlns:sodipodi="http://sodipodi.sourceforge.net/DTD/sodipodi-0.dtd"
   xmlns:inkscape="http://www.inkscape.org/namespaces/inkscape"
   width="101.15267mm"
   height="56.601269mm"
   viewBox="0 0 101.15267 56.601269"
   version="1.1"
   id="svg8"
   inkscape:version="0.92.4 (5da689c313, 2019-01-14)"
   sodipodi:docname="cron_install-logo.svg">
  <defs
     id="defs2"><linearGradient
   inkscape:collect="always"
   id="linearGradient4294">
  <stop
     offset="0"
     style="stop-color:#ffffff;stop-opacity:0.668"
     id="stop4296" />
  <stop
     offset="1"
     style="stop-color:#ffffff;stop-opacity:0"
     id="stop4298" />
</linearGradient>
<linearGradient
   inkscape:collect="always"
   x1="-81.670998"
   y1="-10.987"
   gradientTransform="matrix(0.40310768,0,0,0.40310768,142.62465,104.49989)"
   x2="-83.836998"
   gradientUnits="userSpaceOnUse"
   xlink:href="#linearGradient4294"
   y2="190.88"
   id="linearGradient3803" />
<linearGradient
   inkscape:collect="always"
   x1="-79.732002"
   y1="63.817001"
   gradientTransform="matrix(-1.1819953,0,0,-1.1819953,23.11665,211.65013)"
   x2="-80.913002"
   gradientUnits="userSpaceOnUse"
   y2="57.477001"
   id="linearGradient3821">
  <stop
     offset="0"
     style="stop-color:#b1883f"
     id="stop3817" />
  <stop
     offset="1"
     style="stop-color:#b1883f;stop-opacity:0"
     id="stop3819" />
</linearGradient>
<linearGradient
   inkscape:collect="always"
   xlink:href="#linearGradient4294"
   id="linearGradient1142"
   gradientUnits="userSpaceOnUse"
   gradientTransform="matrix(0.40310768,0,0,0.40310768,142.62465,104.49989)"
   x1="-81.670998"
   y1="-10.987"
   x2="-83.836998"
   y2="190.88" />

	

		
	
			
		
				
				
				
				
				
				
				
				
				
				
				
				
				
				
				
				
				
			</defs>
  <sodipodi:namedview
     id="base"
     pagecolor="#ffffff"
     bordercolor="#666666"
     borderopacity="1.0"
     inkscape:pageopacity="0.0"
     inkscape:pageshadow="2"
     inkscape:zoom="1.4"
     inkscape:cx="160.19873"
     inkscape:cy="50.397833"
     inkscape:document-units="mm"
     inkscape:current-layer="layer1"
     showgrid="false"
     fit-margin-top="3"
     fit-margin-right="3"
     fit-margin-bottom="3"
     fit-margin-left="3"
     inkscape:window-width="1920"
     inkscape:window-height="1029"
     inkscape:window-x="0"
     inkscape:window-y="27"
     inkscape:window-maximized="1" />
  <metadata
     id="metadata5">
    <rdf:RDF>
      <cc:Work
         rdf:about="">
        <dc:format>image/svg+xml</dc:format>
        <dc:type
           rdf:resource="http://purl.org/dc/dcmitype/StillImage" />
        <dc:title></dc:title>
      </cc:Work>
    </rdf:RDF>
  </metadata>
  <g
     inkscape:label="Calque 1"
     inkscape:groupmode="layer"
     id="layer1"
     transform="translate(-49.403164,-123.23191)">
    <path
       d="m 117.71055,136.46459 23.26994,5.56956 -17.13065,5.00694 -23.2534,-5.38399 z"
       style="fill:#82642f;stroke:#746137;stroke-width:0.26458332;stroke-linecap:square;stroke-linejoin:round"
       sodipodi:nodetypes="ccccc"
       id="path3788"
       inkscape:connector-curvature="0" />
    <path
       sodipodi:nodetypes="cccsc"
       inkscape:transform-center-y="-8.329675"
       inkscape:transform-center-x="-6.026071"
       d="m 116.92807,136.67617 -7.97847,6.42296 -16.875344,6.64873 8.664024,-8.1014 z"
       style="fill:#b1883f;fill-rule:evenodd;stroke:#746137;stroke-width:0.26458332px;stroke-linejoin:round"
       id="path3823"
       inkscape:connector-curvature="0" />
    <path
       d="m 139.28906,142.37812 c 0,0 -21.73099,-5.01521 -21.73099,-5.01521 l -14.11184,4.32728 c 16.84344,5.31898 21.06789,-1.82381 35.84283,0.68793 z"
       style="fill:url(#linearGradient3821);fill-rule:evenodd;stroke-width:0.26458332"
       sodipodi:nodetypes="cccc"
       id="path3813"
       inkscape:connector-curvature="0" />
    <g
       transform="matrix(1.2104654,0,0,1.2104654,84.979268,102.29)"
       id="g2091"
       style="stroke-width:0.39652568">
      <path
         d="m 43.399,34.31 c 0,7.418 -6.02,13.438 -13.438,13.438 -7.418,0 -13.438,-6.02 -13.438,-13.438 0,-7.418 6.02,-13.438 13.438,-13.438 7.418,0 13.438,6.02 13.438,13.438 z"
         style="fill:none;stroke:#ffffff;stroke-width:2.18580818;stroke-linecap:round;stroke-linejoin:round"
         id="path2093"
         inkscape:connector-curvature="0" />
      <path
         d="m 43.399,34.31 c 0,7.418 -6.02,13.438 -13.438,13.438 -7.418,0 -13.438,-6.02 -13.438,-13.438 0,-7.418 6.02,-13.438 13.438,-13.438 7.418,0 13.438,6.02 13.438,13.438 z"
         style="fill:#ffffff;fill-rule:evenodd;stroke:#000000;stroke-width:1.09290409;stroke-linecap:round;stroke-linejoin:round"
         id="path2095"
         inkscape:connector-curvature="0" />
      <path
         d="M 29.961,34.169 V 25.446"
         style="fill:none;stroke:#000000;stroke-width:1.09290409;stroke-linecap:round;stroke-linejoin:round"
         sodipodi:nodetypes="cc"
         id="path2097"
         inkscape:connector-curvature="0" />
      <path
         d="m 29.986,34.464 5.869,3.389"
         style="fill:none;stroke:#000000;stroke-width:1.09290409;stroke-linecap:round;stroke-linejoin:round"
         id="path2099"
         inkscape:connector-curvature="0" />
      <path
         d="m 31.178,34.31 c 0,0.672 -0.545,1.217 -1.217,1.217 -0.672,0 -1.217,-0.545 -1.217,-1.217 0,-0.672 0.545,-1.218 1.217,-1.218 0.672,0 1.217,0.546 1.217,1.218 z"
         style="fill:#000000;fill-rule:evenodd;stroke:#000000;stroke-width:0.6830551;stroke-linecap:round;stroke-linejoin:round"
         id="path2101"
         inkscape:connector-curvature="0" />
    </g>
    <path
       d="m 123.70918,147.35904 -22.95908,-5.48445 -0.15366,29.34421 23.11274,5.48209 z"
       style="fill:#c7a465;stroke:#746137;stroke-width:0.26458332;stroke-linecap:square;stroke-linejoin:round"
       sodipodi:nodetypes="ccccc"
       id="path3784"
       inkscape:connector-curvature="0" />
    <path
       d="m 124.17016,147.3555 16.56684,-4.97975 0.1052,28.83596 -16.62831,5.37926 z"
       style="fill:#c7a465;stroke:#746137;stroke-width:0.26458332;stroke-linecap:square;stroke-linejoin:round"
       sodipodi:nodetypes="ccccc"
       id="path3786"
       inkscape:connector-curvature="0" />
    <path
       d="m 123.08036,147.75501 v 15.23238 c -3.8734,3.91713 -21.93902,-25.38099 -21.71089,1.96211 l 0.008,-22.38108 z"
       style="opacity:0.81172001;fill:url(#linearGradient1142);fill-rule:evenodd;stroke-width:0.26458332"
       sodipodi:nodetypes="ccccc"
       id="path3792"
       inkscape:connector-curvature="0" />
    <path
       d="m 124.77179,147.74201 v 15.23119 c 5.44191,-22.35626 15.69335,-14.39434 15.27493,-19.82679 z"
       style="opacity:0.81172001;fill:url(#linearGradient3803);fill-rule:evenodd;stroke-width:0.26458332"
       sodipodi:nodetypes="cccc"
       id="path3794"
       inkscape:connector-curvature="0" />
    <path
       sodipodi:nodetypes="cccsc"
       inkscape:transform-center-y="-8.3223685"
       inkscape:transform-center-x="-10.429825"
       d="m 131.47489,158.43198 c 0,0 -7.39693,-10.82235 -7.39693,-10.82235 l 17.37297,-5.22324 c 0,0 5.97262,10.37319 5.97262,10.37319 0,0 -15.94866,5.6724 -15.94866,5.6724 z"
       style="fill:#b1883f;fill-rule:evenodd;stroke:#746137;stroke-width:0.26458332px;stroke-linejoin:round"
       id="path3790"
       inkscape:connector-curvature="0" />
    <g
       style="display:none;stroke-width:2.09962177"
       id="Layer_1"
       display="none"
       transform="matrix(-0.12601475,0,0,0.12601475,106.53105,111.03991)">
	<g
   style="display:inline;opacity:0.5;stroke-width:2.09962177"
   display="inline"
   id="g884">
		<g
   style="stroke-width:2.09962177"
   id="g882">
			<path
   style="fill:#00a8de;stroke-width:2.09962177"
   inkscape:connector-curvature="0"
   d="m 469.86,219.05 c -5.767,-13.684 -21.841,-15.535 -34.964,-15.642 -8.447,-0.069 -16.885,0.798 -25.285,1.575 -9.235,0.854 -18.351,0.906 -27.629,0.906 h -83.189 c -13.311,0 -26.573,0.152 -39.874,0.663 -13.324,0.512 -26.802,0.859 -39.979,-1.518 -3.152,-0.569 -4.499,4.25 -1.329,4.821 23.513,4.242 47.849,1.033 71.581,1.033 h 81.073 c 10.426,0 20.945,0.438 31.354,-0.237 7.579,-0.491 15.124,-1.402 22.704,-1.894 12.355,-0.802 34.738,-2.564 40.716,11.622 1.23,2.93 6.07,1.65 4.82,-1.32 z"
   id="path880" />

		</g>

	</g>

	<g
   style="display:inline;opacity:0.5;stroke-width:2.09962177"
   display="inline"
   id="g890">
		<g
   style="stroke-width:2.09962177"
   id="g888">
			<path
   style="fill:#00a8de;stroke-width:2.09962177"
   inkscape:connector-curvature="0"
   d="m 455.45,207.96 c 8.738,2.304 14.97,9.666 21.549,15.402 8.265,7.206 16.881,14.078 25.465,20.898 17.527,13.924 36.322,26.084 54.728,38.792 18.878,13.034 37.594,26.669 57.314,38.417 15.472,9.217 31.484,15.963 40.488,32.581 0.72,-1.254 1.439,-2.508 2.159,-3.762 -27.733,2.746 -54.943,8.819 -82.238,14.234 -14.415,2.86 -28.883,5.475 -43.467,7.313 -14.557,1.835 -29.17,2.074 -43.781,3.202 -29.404,2.27 -58.575,7.036 -88.12,7.335 -30.22,0.306 -60.45,0.93 -90.672,0.951 -3.224,0.002 -3.224,5.002 0,5 29.577,-0.02 59.144,-0.923 88.721,-0.944 29.54,-0.02 58.775,-4.706 88.149,-7.186 14.618,-1.234 29.257,-1.437 43.842,-3.132 13.818,-1.606 27.531,-4.02 41.186,-6.647 28.71,-5.523 57.236,-12.24 86.38,-15.126 1.879,-0.186 3.124,-1.981 2.159,-3.762 -8.602,-15.876 -23.215,-23.654 -38.407,-32.147 -20.151,-11.265 -38.974,-25.309 -57.953,-38.41 -19.642,-13.558 -39.701,-26.541 -58.402,-41.397 -8.83,-7.015 -17.73,-14.094 -26.133,-21.618 -6.532,-5.848 -12.89,-12.51 -21.638,-14.817 -3.12,-0.79 -4.44,4.03 -1.33,4.85 z"
   id="path886" />

		</g>

	</g>

	<g
   style="display:inline;opacity:0.5;stroke-width:2.09962177"
   display="inline"
   id="g896">
		<g
   style="stroke-width:2.09962177"
   id="g894">
			<path
   style="fill:#00a8de;stroke-width:2.09962177"
   inkscape:connector-curvature="0"
   d="m 654.74,351.57 c 5.83,19.759 11.251,42.011 -0.568,60.665 -6.691,10.56 -17.687,17.522 -28.306,23.577 -12.176,6.943 -25.049,12.608 -38.137,17.586 -26.121,9.937 -53.318,16.787 -80.414,23.464 -29.333,7.228 -58.329,15.03 -88.39,18.683 -31.184,3.789 -62.646,4.564 -94.007,5.763 -3.214,0.123 -3.226,5.123 0,5 32.015,-1.224 64.078,-2.126 95.911,-5.994 29.315,-3.562 57.601,-11.204 86.208,-18.234 27.121,-6.665 54.24,-13.57 80.462,-23.274 12.546,-4.643 24.825,-10.035 36.632,-16.329 10.764,-5.737 21.343,-12.247 29.548,-21.403 18.095,-20.193 12.868,-47.155 5.882,-70.833 -0.89,-3.11 -5.72,-1.79 -4.81,1.31 z"
   id="path892" />

		</g>

	</g>

	<g
   style="display:inline;opacity:0.5;stroke-width:2.09962177"
   display="inline"
   id="g902">
		<g
   style="stroke-width:2.09962177"
   id="g900">
			<path
   style="fill:#00a8de;stroke-width:2.09962177"
   inkscape:connector-curvature="0"
   d="m 310.77,386.44 c 12.439,0.278 21.857,10.483 28.295,20.117 7.191,10.76 12.332,23.777 13.525,36.714 0.988,10.718 -3.338,21.263 -7.813,30.774 -4.301,9.141 -11.453,23.957 -22.402,26.408 -3.146,0.704 -1.812,5.524 1.329,4.821 12.123,-2.714 19.847,-17.499 24.847,-27.582 5.44,-10.971 10.088,-23.03 8.943,-35.452 -1.318,-14.3 -7.399,-28.53 -15.507,-40.259 -7.213,-10.433 -17.866,-20.243 -31.217,-20.541 -3.22,-0.07 -3.21,4.93 0.01,5 z"
   id="path898" />

		</g>

	</g>

	<g
   style="display:inline;opacity:0.5;stroke-width:2.09962177"
   display="inline"
   id="g908">
		<g
   style="stroke-width:2.09962177"
   id="g906">
			<path
   style="fill:#00a8de;stroke-width:2.09962177"
   inkscape:connector-curvature="0"
   d="m 319.58,383.67 c -18.271,-12.897 -34.524,-28.322 -51.394,-42.939 -8.087,-7.007 -16.374,-13.778 -25.023,-20.082 -9.343,-6.81 -19.399,-12.661 -29.116,-18.916 -18.806,-12.106 -36.334,-25.297 -52.265,-41.032 -17.076,-16.867 -35.507,-32.355 -54.567,-46.923 -2.563,-1.959 -5.049,2.388 -2.524,4.317 19.212,14.684 37.637,30.418 54.845,47.415 15.779,15.586 33.395,28.521 51.987,40.54 9.226,5.964 18.728,11.56 27.702,17.901 9.34,6.6 18.112,13.979 26.749,21.463 16.759,14.52 32.929,29.76 51.081,42.573 2.64,1.86 5.13,-2.48 2.52,-4.32 z"
   id="path904" />

		</g>

	</g>

	<g
   style="display:inline;opacity:0.5;stroke-width:2.09962177"
   display="inline"
   id="g914">
		<g
   style="stroke-width:2.09962177"
   id="g912">
			<path
   style="fill:#00a8de;stroke-width:2.09962177"
   inkscape:connector-curvature="0"
   d="m 215.72,205.03 c -16.686,2.946 -33.227,6.968 -50.212,7.75 -14.875,0.684 -29.303,-2.516 -44.172,-0.199 -3.178,0.495 -1.824,5.313 1.329,4.821 15.533,-2.42 31.015,1.124 46.614,0.176 16.113,-0.979 31.92,-4.928 47.77,-7.727 3.17,-0.56 1.82,-5.38 -1.33,-4.82 z"
   id="path910" />

		</g>

	</g>

	<g
   style="display:inline;opacity:0.5;stroke-width:2.09962177"
   display="inline"
   id="g920">
		<g
   style="stroke-width:2.09962177"
   id="g918">
			<path
   style="fill:#00a8de;stroke-width:2.09962177"
   inkscape:connector-curvature="0"
   d="m 333.74,497.87 c -10.018,-5.466 -15.773,-17.372 -22.893,-25.923 -8.483,-10.187 -17.852,-19.602 -27.531,-28.645 -20.301,-18.966 -41.688,-36.759 -62.128,-55.586 -20.736,-19.099 -41.856,-37.636 -63.457,-55.75 -20.182,-16.924 -39.855,-34.421 -55.278,-55.946 -1.86,-2.596 -6.2,-0.103 -4.317,2.524 15.027,20.971 33.843,38.242 53.482,54.792 21.939,18.488 43.554,37.207 64.658,56.648 20.901,19.254 42.677,37.534 63.505,56.855 9.72,9.016 18.976,18.513 27.531,28.645 7.525,8.912 13.333,20.937 23.905,26.705 2.82,1.58 5.35,-2.74 2.52,-4.29 z"
   id="path916" />

		</g>

	</g>

	<g
   style="display:inline;opacity:0.5;stroke-width:2.09962177"
   display="inline"
   id="g926">
		<g
   style="stroke-width:2.09962177"
   id="g924">
			<path
   style="fill:#00a8de;stroke-width:2.09962177"
   inkscape:connector-curvature="0"
   d="m 114.18,220.97 c 8.587,15.06 16.825,30.88 20.404,47.977 1.611,7.695 2.012,16.287 -1.457,23.547 -3.953,8.276 -12.735,11.862 -21.228,13.524 -1.746,0.342 -2.075,2.308 -1.494,3.673 3.834,9.004 13.77,14.415 21.84,19.036 4.639,2.656 9.366,5.153 13.937,7.928 5.945,3.609 11.221,8.302 16.561,12.73 11.421,9.471 23.396,18.243 34.778,27.738 10.588,8.832 20.281,18.674 29.415,28.988 14.441,16.304 26.52,34.358 40.069,51.368 12.746,16.001 27.818,33.542 47.208,41.518 5.251,2.16 10.689,3.444 16.379,3.534 3.226,0.051 3.221,-4.95 0,-5 -21.068,-0.33 -38.306,-18.379 -51.258,-33.058 -13.634,-15.452 -24.79,-32.789 -37.757,-48.757 -8.824,-10.867 -18.131,-21.334 -28.204,-31.062 -10.377,-10.022 -21.929,-18.34 -33.167,-27.317 -10.41,-8.316 -20.167,-17.927 -31.5,-24.998 -9.542,-5.954 -20.226,-10.35 -28.676,-17.923 -2.284,-2.047 -4.105,-4.424 -5.307,-7.246 -0.498,1.224 -0.996,2.448 -1.494,3.673 9.136,-1.788 17.64,-5.67 22.95,-13.596 4.837,-7.219 5.122,-16.645 4.009,-24.958 -2.568,-19.178 -12.23,-37.25 -21.69,-53.84 -1.6,-2.79 -5.92,-0.27 -4.32,2.53 z"
   id="path922" />

		</g>

	</g>

	<g
   style="display:inline;opacity:0.5;stroke-width:2.09962177"
   display="inline"
   id="g932">
		<g
   style="stroke-width:2.09962177"
   id="g930">
			<path
   style="fill:#00a8de;stroke-width:2.09962177"
   inkscape:connector-curvature="0"
   d="m 658.73,361.56 c 7.754,5.82 8.224,17.343 7.971,26.154 -0.291,10.132 -2.441,20.242 -5.246,29.952 -2.674,9.257 -6.461,18.286 -13.857,24.752 -7.205,6.299 -17.351,8.711 -26.326,11.235 -30.511,8.58 -62.753,8.116 -94.174,8.027 -32.885,-0.093 -66.351,-2.896 -99.141,0.299 -14.03,1.367 -27.505,6.088 -41.68,6.295 -3.221,0.047 -3.226,5.047 0,5 15.377,-0.225 30.034,-5.467 45.304,-6.607 16.571,-1.237 33.275,-0.918 49.873,-0.6 32.231,0.618 64.709,1.778 96.899,-0.474 14.898,-1.042 29.853,-3.095 44.249,-7.119 8.855,-2.475 17.987,-5.01 25.647,-10.284 15.106,-10.401 19.724,-31.582 22.302,-48.599 2.097,-13.843 3.28,-32.908 -9.298,-42.349 -2.57,-1.93 -5.06,2.42 -2.51,4.33 z"
   id="path928" />

		</g>

	</g>

	<g
   style="display:inline;opacity:0.5;stroke-width:2.09962177"
   display="inline"
   id="g938">
		<g
   style="stroke-width:2.09962177"
   id="g936">
			<path
   style="fill:#00a8de;stroke-width:2.09962177"
   inkscape:connector-curvature="0"
   d="m 337.19,498.76 c 64.087,0.016 128.18,1.548 192.26,0.416 28.87,-0.51 57.661,-2.275 86.509,-3.252 23.54,-0.797 48.891,-0.907 70.77,-10.72 2.938,-1.318 0.393,-5.625 -2.524,-4.317 -21.885,9.816 -47.735,9.339 -71.241,10.139 -29.172,0.993 -58.281,2.728 -87.478,3.218 -62.763,1.054 -125.53,-0.469 -188.3,-0.485 -3.22,0 -3.22,5 0,5 z"
   id="path934" />

		</g>

	</g>

	<g
   style="display:inline;opacity:0.5;stroke-width:2.09962177"
   display="inline"
   id="g944">
		<g
   style="stroke-width:2.09962177"
   id="g942">
			<path
   style="fill:#00a8de;stroke-width:2.09962177"
   inkscape:connector-curvature="0"
   d="m 652.72,436.27 c -22.457,7.413 -45.522,12.119 -69.18,13.124 -3.212,0.136 -3.225,5.137 0,5 24.09,-1.023 47.636,-5.753 70.509,-13.303 3.04,-1 1.74,-5.83 -1.33,-4.82 z"
   id="path940" />

		</g>

	</g>

	<g
   style="display:inline;opacity:0.5;stroke-width:2.09962177"
   display="inline"
   id="g950">
		<g
   style="stroke-width:2.09962177"
   id="g948">
			<path
   style="fill:#00a8de;stroke-width:2.09962177"
   inkscape:connector-curvature="0"
   d="m 481.6,223.82 c -49.068,-0.042 -99.404,-4.24 -147.99,4.484 -11.797,2.118 -23.449,4.964 -35.255,7.039 -13.142,2.31 -26.492,2.684 -39.808,2.76 -25.706,0.148 -51.382,-1.7 -77.092,-1.07 -2.881,0.071 -3.327,4.024 -0.665,4.911 25.867,8.615 46.496,28.074 68.507,43.376 10.482,7.287 21.418,13.654 34.097,16.07 11.166,2.127 22.557,0.692 33.642,-1.197 14.051,-2.394 27.807,-4.963 42.077,-5.732 15.832,-0.854 31.671,-1.576 47.5,-2.473 30.98,-1.755 61.853,-4.506 92.455,-9.751 16.426,-2.815 32.714,-7.927 49.542,-7.169 3.225,0.145 3.211,-4.855 0,-5 -14.258,-0.642 -28.328,2.827 -42.194,5.677 -15.686,3.224 -31.593,5.384 -47.504,7.13 -31.23,3.427 -62.651,4.659 -94.011,6.281 -14.161,0.733 -27.881,2.312 -41.824,4.884 -12.182,2.248 -24.542,4.524 -36.945,2.762 -13.358,-1.898 -24.755,-9.157 -35.614,-16.706 -11.208,-7.792 -21.871,-16.336 -33.058,-24.16 -10.972,-7.674 -22.585,-14.566 -35.34,-18.814 -0.222,1.637 -0.443,3.274 -0.665,4.911 25.707,-0.63 51.388,1.117 77.092,1.07 11.905,-0.022 23.849,-0.405 35.648,-2.064 12.433,-1.748 24.661,-4.784 36.972,-7.202 24.853,-4.882 50.488,-5.545 75.748,-5.71 24.896,-0.163 49.786,0.671 74.681,0.692 3.21,0 3.21,-5 -0.02,-5 z"
   id="path946" />

		</g>

	</g>

	<g
   style="display:inline;opacity:0.5;stroke-width:2.09962177"
   display="inline"
   id="g956">
		<g
   style="stroke-width:2.09962177"
   id="g954">
			<path
   style="fill:#00a8de;stroke-width:2.09962177"
   inkscape:connector-curvature="0"
   d="m 665.98,420.75 c 0.193,23.774 -29.388,35.225 -47.893,41.606 -21.373,7.37 -43.602,10.795 -65.42,16.39 -3.121,0.8 -1.796,5.623 1.329,4.821 23.248,-5.961 46.866,-9.637 69.535,-17.843 19.853,-7.187 47.651,-20.082 47.449,-44.973 -0.03,-3.23 -5.03,-3.24 -5.01,-0.01 z"
   id="path952" />

		</g>

	</g>

	<g
   style="display:inline;opacity:0.5;stroke-width:2.09962177"
   display="inline"
   id="g962">
		<g
   style="stroke-width:2.09962177"
   id="g960">
			<path
   style="fill:#00a8de;stroke-width:2.09962177"
   inkscape:connector-curvature="0"
   d="m 181.14,304.93 c 28.443,20.288 41.786,54.795 68.394,77.004 2.457,2.051 6.014,-1.467 3.536,-3.536 -26.963,-22.505 -40.531,-57.19 -69.406,-77.786 -2.62,-1.87 -5.12,2.47 -2.52,4.33 z"
   id="path958" />

		</g>

	</g>

	<g
   style="display:inline;opacity:0.5;stroke-width:2.09962177"
   display="inline"
   id="g968">
		<g
   style="stroke-width:2.09962177"
   id="g966">
			<path
   style="fill:#00a8de;stroke-width:2.09962177"
   inkscape:connector-curvature="0"
   d="m 178.91,312.73 c 18.798,4.06 31.182,21.897 41.556,36.667 10.604,15.098 20.38,31.924 35.242,43.308 2.561,1.961 5.046,-2.385 2.524,-4.317 -15.78,-12.087 -25.756,-30.946 -37.212,-46.802 -10.243,-14.177 -22.783,-29.79 -40.78,-33.677 -3.15,-0.68 -4.48,4.14 -1.33,4.82 z"
   id="path964" />

		</g>

	</g>

	<g
   style="display:inline;opacity:0.5;stroke-width:2.09962177"
   display="inline"
   id="g974">
		<g
   style="stroke-width:2.09962177"
   id="g972">
			<path
   style="fill:#00a8de;stroke-width:2.09962177"
   inkscape:connector-curvature="0"
   d="m 225,327.19 c 24.661,23.921 42.889,53.854 70.35,74.954 2.557,1.965 5.042,-2.382 2.524,-4.317 -27.07,-20.799 -45.02,-50.584 -69.338,-74.173 -2.31,-2.24 -5.85,1.29 -3.53,3.54 z"
   id="path970" />

		</g>

	</g>

	<g
   style="display:inline;opacity:0.5;stroke-width:2.09962177"
   display="inline"
   id="g980">
		<g
   style="stroke-width:2.09962177"
   id="g978">
			<path
   style="fill:#00a8de;stroke-width:2.09962177"
   inkscape:connector-curvature="0"
   d="m 201.95,342.73 c 24.518,34.636 57.083,61.882 92.449,84.899 2.711,1.765 5.214,-2.566 2.524,-4.317 -34.615,-22.528 -66.653,-49.196 -90.656,-83.105 -1.84,-2.6 -6.17,-0.11 -4.31,2.53 z"
   id="path976" />

		</g>

	</g>

	<g
   style="display:inline;opacity:0.5;stroke-width:2.09962177"
   display="inline"
   id="g986">
		<g
   style="stroke-width:2.09962177"
   id="g984">
			<path
   style="fill:#00a8de;stroke-width:2.09962177"
   inkscape:connector-curvature="0"
   d="m 173.64,343.67 c 24.132,34.309 61.184,55.02 96.225,76.404 2.76,1.684 5.271,-2.641 2.524,-4.317 -34.228,-20.888 -70.848,-41.081 -94.431,-74.61 -1.83,-2.61 -6.17,-0.11 -4.31,2.53 z"
   id="path982" />

		</g>

	</g>

	<g
   style="display:inline;opacity:0.5;stroke-width:2.09962177"
   display="inline"
   id="g992">
		<g
   style="stroke-width:2.09962177"
   id="g990">
			<path
   style="fill:#00a8de;stroke-width:2.09962177"
   inkscape:connector-curvature="0"
   d="m 648.78,367.77 c 5.875,4.634 7.136,13.244 7.952,20.221 0.87,7.444 0.795,14.977 0.759,22.458 -0.038,7.84 0.321,15.581 -3.051,22.89 -3.542,7.678 -10.967,11.824 -18.715,14.254 -3.066,0.961 -1.756,5.789 1.329,4.821 8.14,-2.552 15.362,-6.627 20.185,-13.835 4.813,-7.192 5.504,-16.541 5.302,-24.926 -0.216,-9.002 0.091,-17.959 -0.958,-26.93 -0.916,-7.832 -2.703,-17.31 -9.269,-22.489 -2.49,-1.97 -6.06,1.55 -3.53,3.54 z"
   id="path988" />

		</g>

	</g>

	<g
   style="display:inline;opacity:0.5;stroke-width:2.09962177"
   display="inline"
   id="g998">
		<g
   style="stroke-width:2.09962177"
   id="g996">
			<path
   style="fill:#00a8de;stroke-width:2.09962177"
   inkscape:connector-curvature="0"
   d="m 342.86,492.15 c 13.341,1.503 25.699,-5.063 38.37,-8.039 14.697,-3.452 29.589,-6.176 44.468,-8.722 31.543,-5.398 63.129,-10.497 94.571,-16.472 15.999,-3.04 31.953,-6.31 47.851,-9.842 15.539,-3.452 31.407,-4.709 47.148,-6.87 8.191,-1.125 19.429,-1.089 24.968,-8.413 4.456,-5.893 5.938,-13.947 8.089,-20.884 4.739,-15.28 18.78,-51.793 -3.715,-59.695 -3.05,-1.071 -4.35,3.76 -1.329,4.821 8.385,2.945 8.644,12.846 8.109,20.333 -0.672,9.406 -3.451,18.69 -6.174,27.67 -2.269,7.482 -4.07,15.574 -7.589,22.574 -1.651,3.284 -4.258,5.043 -7.702,6.123 -6.62,2.076 -14.155,2.433 -20.99,3.291 -15.446,1.94 -30.772,3.722 -45.994,7.08 -15.88,3.503 -31.829,6.691 -47.807,9.711 -31.409,5.938 -62.973,10.955 -94.47,16.387 -13.667,2.357 -27.187,5.289 -40.763,8.086 -12.415,2.557 -24.011,9.328 -37.041,7.86 -3.22,-0.36 -3.19,4.64 -0.02,5 z"
   id="path994" />

		</g>

	</g>

	<g
   style="display:inline;opacity:0.5;stroke-width:2.09962177"
   display="inline"
   id="g1004">
		<g
   style="stroke-width:2.09962177"
   id="g1002">
			<path
   style="fill:#00a8de;stroke-width:2.09962177"
   inkscape:connector-curvature="0"
   d="m 348.79,483.67 c -11.158,-21.717 -30.93,-33.249 -50.735,-45.966 -20.532,-13.184 -29.443,-37.462 -46.237,-54.278 -8.091,-8.102 -18.368,-13.815 -28.291,-19.326 -10.988,-6.103 -21.27,-12.953 -31.872,-19.664 -21.779,-13.786 -45.569,-25.159 -64.115,-43.432 -2.298,-2.264 -5.835,1.27 -3.536,3.536 17.66,17.4 40.015,28.836 60.982,41.64 10.291,6.285 20.009,13.323 30.551,19.21 11,6.143 22.288,11.978 31.659,20.535 8.729,7.97 15.022,18.578 21.79,28.165 6.458,9.147 13.431,17.933 22.292,24.876 8.911,6.982 19.312,11.973 28.435,18.726 10.292,7.618 18.891,17.085 24.757,28.503 1.49,2.87 5.8,0.34 4.33,-2.52 z"
   id="path1000" />

		</g>

	</g>

</g>
    <g
       id="g1339"
       transform="translate(21.658164,3.1530502)">
      <path
         id="path1007"
         d="m 87.66453,137.39891 c 0,-0.002 0.0012,-0.002 0.0012,-0.002 0,0 0.0012,0 0.0024,0 -0.002,8e-4 -0.003,8e-4 -0.003,8e-4 z m -0.002,7.9e-4 c 0.0012,0.002 0.04756,-0.005 0.02021,-0.01 0.159243,0.0202 0.313658,-0.0392 0.36121,-0.20911 0.038,-0.14024 -0.04756,-0.34221 -0.207899,-0.36482 -0.541865,-0.076 -0.80204,0.35769 -1.013558,0.78193 -0.07127,0.14496 -0.04042,0.32079 0.106965,0.40634 0.110484,0.0653 0.26852,0.0476 0.360004,-0.0439 0.797314,1.12766 1.889388,2.04863 3.112051,2.69625 -1.567386,0.67256 -3.522019,-0.19724 -4.740058,-1.5329 -0.02373,-0.10455 -0.09621,-0.20197 -0.20438,-0.23766 -0.428968,-0.52638 -0.743833,-1.11107 -0.879349,-1.69445 -0.08676,-0.37308 -0.660693,-0.21504 -0.572728,0.15803 0.133103,0.57273 0.414692,1.13952 0.798521,1.66239 -0.73197,0.24831 -1.486558,0.72252 -1.702802,1.46756 -0.117621,0.40403 -0.155622,0.99818 0.03207,1.38914 0.106965,0.22217 0.230518,0.31969 0.242381,0.57986 0.0095,0.22218 0.08314,0.45632 0.179449,0.65598 0.597659,1.23935 1.610112,2.30287 2.334943,3.47456 0.716488,1.15742 1.366525,2.35877 1.896526,3.61361 1.333249,3.1596 2.007011,6.68886 1.382007,10.09838 -0.622692,3.39012 -2.396771,6.64724 -5.582513,8.22529 -1.550697,0.76644 -3.440086,1.14545 -5.169026,1.09438 -0.961282,-0.0286 -1.948802,-0.14738 -2.863739,-0.45872 -0.817522,-0.27808 -1.443732,-0.74153 -2.19239,-1.13722 -0.689244,-0.36362 -1.321386,-0.88286 -1.761011,-1.54597 -0.401622,-0.60721 -0.708243,-1.26911 -1.100316,-1.87984 -0.368347,-0.57393 -0.785452,-1.22155 -1.467558,-1.42121 -0.534727,-0.15683 -1.128868,0.17473 -1.497215,0.53473 -1.117006,1.08725 -1.391456,2.57853 -1.943977,3.97602 -0.335071,0.84727 -0.819935,1.67545 -1.604181,2.18404 -0.688037,0.44676 -1.500834,0.73197 -2.274323,0.99456 -1.635044,0.55493 -3.466225,0.94108 -5.150026,0.35056 -0.916143,-0.32081 -1.50556,-0.81039 -1.923871,-1.69095 -0.306621,-0.644 -0.516933,-1.32611 -0.791383,-1.98328 -0.408761,-0.97204 -1.447352,-1.74322 -2.510875,-1.79308 -1.329729,-0.063 -1.963078,0.84839 -2.664084,1.82515 -0.799727,1.11338 -1.700388,2.42291 -3.046706,2.9137 -0.882867,0.3208 -1.935734,0.4349 -2.87329,0.20438 0.03207,-0.14024 -0.02262,-0.29114 -0.205586,-0.322 -0.345829,-0.0594 -0.682106,-0.14376 -1.008834,-0.2472 -0.103346,-0.0784 -0.20438,-0.16167 -0.298277,-0.25546 -0.131897,-0.1319 -0.299483,-0.0998 -0.405242,0 -1.336767,-0.549 -2.541737,-1.3998 -3.7264,-2.24105 -0.892417,-0.63334 -1.80263,-1.21794 -2.74853,-1.76693 -0.857935,-0.49904 -1.835906,-0.99698 -2.547668,-1.70281 -0.184174,-0.18297 -0.442037,-0.42776 -0.480038,-0.70342 -0.0392,-0.28641 0.511001,-0.19845 0.640486,-0.1889 0.620279,0.044 1.235833,0.13663 1.857319,0.17583 0.200861,0.0131 0.402829,0.0274 0.604797,0.044 0.07721,1.19421 0.589416,2.34087 1.90477,2.53219 1.024315,0.14969 2.046217,-0.0712 3.052738,-0.27928 0.08314,0.14969 0.262588,0.17583 0.396898,0.11531 0.777108,0.64641 1.56618,1.26911 2.539325,1.59584 0.101033,0.0345 0.18538,0.0131 0.248312,-0.0357 0.645211,0.0725 1.414076,-0.0249 1.938046,-0.29707 0.693968,0.77711 2.096081,0.30773 2.788844,-0.29234 1.033764,-0.89473 0.920868,-2.49178 0.351759,-3.61361 -0.01186,-0.0214 -0.02373,-0.0404 -0.03679,-0.057 0.62983,-1.01124 1.398594,-1.90477 2.617739,-2.01646 0.736695,-0.0665 1.466352,0.038 2.111563,0.37307 -0.09983,0.038 -0.178242,0.12597 -0.177036,0.26621 0.0083,0.99225 0.155623,2.1377 0.764039,2.95522 0.620279,0.83421 1.549491,0.68322 2.311218,0.17583 0.32914,0.45631 0.686832,0.87935 1.182351,1.18707 0.538245,0.33387 1.158524,0.5846 1.80263,0.59174 0.796109,0.01 1.597042,-0.21273 2.306493,-0.59415 0.865073,0.94711 2.29453,0.8686 3.21188,-0.0665 1.053972,-1.07298 0.911418,-2.49177 -0.0939,-3.48282 0.600072,-1.08493 1.145455,-2.21018 1.894113,-3.19408 0.300589,-0.39569 0.701107,-0.68925 1.151488,-0.89121 0.07721,0.76886 0.17231,1.61132 0.609622,2.24708 0.484863,0.70462 1.27504,1.09318 2.135288,1.07538 1.448558,-0.0298 2.079493,-1.07418 1.938046,-2.23039 0.519245,0.61787 0.919763,1.36059 1.254834,2.04743 0.520451,1.06704 0.903074,2.43477 2.05808,2.9885 0.408761,0.19482 0.852004,0.31727 1.303491,0.37196 0.408761,1.53763 2.218529,1.56739 3.500707,1.00049 1.566179,-0.69035 2.926772,-2.21974 2.579737,-4.01995 0.715382,-0.8508 1.282179,-1.83349 1.666008,-2.92436 0.06655,-0.19011 0.127172,-0.38021 0.181761,-0.57273 2.186459,-0.56921 3.325983,-2.93391 3.031325,-5.10368 -0.116415,-0.85793 -0.535934,-1.65887 -1.384318,-1.98087 -0.788971,-0.30059 -1.656457,-0.19725 -2.458598,0.0107 -0.33869,-0.70342 -0.723625,-1.38552 -1.126455,-2.04501 -0.736694,-1.20849 -1.578043,-2.37064 -2.212597,-3.63733 1.595836,-0.50025 1.695664,-2.39918 1.436595,-3.84051 -0.125966,-0.69276 -0.411174,-1.90005 -1.258353,-2.06049 -0.339896,-0.0641 -0.691555,-0.0641 -0.963694,0.18538 -0.154517,0.14256 -0.268519,0.34583 -0.40283,0.52166 0.02493,-0.41349 0.08435,-0.82346 0.188899,-1.22277 0.753383,-2.86846 2.937429,-5.19868 5.838063,-5.93306 0.135416,-0.0345 0.199656,-0.13311 0.209106,-0.24007 0.74152,-0.54307 1.339179,-1.43549 1.768147,-2.12222 0.434899,-0.69628 0.941075,-1.63746 1.890595,-1.61373 0.504969,0.0131 1.136005,0.14738 1.503146,0.53121 0.312552,0.32672 0.411174,0.72725 0.564384,1.13952 0.191311,0.51211 0.511001,1.00652 1.112179,0.76886 0.38383,-0.1521 0.677281,-0.4361 1.095592,-0.5312 0.461038,-0.10335 1.01004,-0.13542 1.461627,0.0368 0.781934,0.29708 0.831797,1.19301 0.676175,1.90477 -0.0178,0.0772 -0.03448,0.15563 -0.05228,0.23294 -0.04393,-0.24832 -0.135416,-0.48597 -0.280483,-0.68925 -0.484863,-0.68089 -1.727734,-0.86034 -2.207872,-0.0452 -0.336277,0.57041 -0.383829,1.43659 -0.08203,2.07235 -0.102241,0.10456 -0.129485,0.2638 0.019,0.37911 0.683211,0.52879 1.536422,0.62028 2.135288,-0.0868 0.08314,-0.0986 0.154517,-0.2079 0.215036,-0.32442 -0.0012,0.0951 0.0024,0.1889 0.01066,0.284 -0.04041,0.0927 -0.03569,0.20318 0.04514,0.29949 0.0012,0.007 0.0024,0.0131 0.0035,0.019 0.02855,0.12475 0.110484,0.1901 0.205586,0.2079 0.699901,0.76644 1.373663,1.69927 1.55663,2.72591 0.246,1.382 -0.754589,2.51439 -2.112769,2.71877 -0.985108,0.14738 -2.017667,-0.0534 -2.990912,-0.4729 -0.04756,-0.16759 -0.216243,-0.29234 -0.394486,-0.18177 -1.371249,-0.68562 -2.588082,-1.78594 -3.331914,-2.92194 0.0035,-0.002 0.0047,-0.002 0.0083,-0.005 0.01508,-0.004 0.0201,-0.008 0.02412,-0.0101 z m -55.690411,25.26155 c -0.737901,-0.0333 -1.45087,0.22699 -1.160937,1.09801 0.311346,0.93283 1.561354,1.59231 2.338563,2.06521 1.069454,0.65004 2.161527,1.2489 3.184635,1.97132 1.551905,1.09439 3.116879,2.26608 4.927751,2.8554 1.73256,1.24407 4.451332,0.86859 6.004343,-0.50497 0.873417,-0.77239 1.521041,-1.74081 2.203047,-2.67716 0.369553,-0.50617 0.733175,-1.0219 1.402212,-1.11932 0.56559,-0.0831 1.159731,0.088 1.61725,0.42656 1.158525,0.85673 1.175213,2.4966 1.970216,3.62546 0.850797,1.20729 2.359875,1.67426 3.796571,1.68854 1.648112,0.0166 3.238018,-0.46818 4.749508,-1.09208 1.385525,-0.57152 2.419289,-1.38794 3.012325,-2.80312 0.563277,-1.34159 0.835316,-3.6124 2.291012,-4.33602 0.977969,-0.48597 1.657663,0.95897 2.043804,1.65645 0.326727,0.59174 0.633348,1.23815 1.12173,1.71236 0.266207,0.25907 0.4729,0.59294 0.764039,0.82345 0.257863,0.20559 0.541865,0.30893 0.822247,0.47652 0.644004,0.38142 1.238145,0.795 1.946389,1.05759 1.606594,0.59766 3.367604,0.73077 5.060855,0.52518 3.236912,-0.39218 6.132721,-1.98439 7.854523,-4.81013 1.681389,-2.7616 2.318357,-6.09231 1.991529,-9.29594 -0.332759,-3.26657 -1.507972,-6.39179 -3.18936,-9.19843 -0.459832,-0.76645 -0.945901,-1.51501 -1.469871,-2.23753 -0.417105,-0.57514 -1.147868,-1.30118 -1.266697,-2.0248 -0.02965,-0.18066 0.04514,-0.44918 -0.05107,-0.61315 -0.111691,-0.1901 -0.260277,-0.14738 -0.298278,-0.43138 -0.04634,-0.33628 -0.06897,-0.74865 0.12476,-1.04452 0.331553,-0.50618 0.876936,-0.79018 1.447352,-0.94469 1.500834,1.6458 4.005675,2.64156 5.860581,1.46987 1.28811,0.56438 2.733049,0.90307 4.097161,0.40042 1.282178,-0.4718 2.08302,-1.68019 1.907182,-3.03726 -0.162761,-1.25604 -0.974351,-2.38611 -1.822836,-3.29743 -0.172311,-1.2845 1.032658,-3.1953 -0.427762,-4.11023 -0.666624,-0.41832 -1.667113,-0.47059 -2.400289,-0.19725 -0.198449,0.0737 -0.407555,0.14738 -0.587003,0.2638 -0.180656,0.11642 -0.442037,0.40756 -0.594141,0.10576 -0.172312,-0.33989 -0.24952,-0.71649 -0.417106,-1.05759 -0.712968,-1.44253 -2.925566,-1.75508 -3.964056,-0.51101 -0.516932,0.61908 -0.87573,1.34632 -1.380799,1.97494 -0.469382,0.58228 -1.057591,1.32974 -1.838218,1.45922 -0.07962,0.0131 -0.133104,0.0488 -0.167586,0.0962 -2.588082,1.01597 -4.61168,3.30578 -5.27006,6.03048 -0.442037,1.83229 -0.161655,3.87971 0.512107,5.61941 0.735589,1.90366 1.95594,3.50663 2.977842,5.25578 0.933938,1.60067 1.840631,3.37112 1.984391,5.24986 0.07007,0.91262 -0.01066,1.82756 -0.227,2.71042 -0.158036,0.0701 -0.177036,0.25315 -0.104553,0.39097 -0.191311,0.65477 -0.457519,1.28932 -0.796109,1.88698 -0.740313,1.30832 -1.774079,2.44552 -3.075257,3.21429 -0.885281,0.52166 -1.96539,0.96842 -3.027706,0.9637 -0.08555,-0.0868 -0.229313,-0.0844 -0.342209,-0.019 -0.219862,-0.0226 -0.437312,-0.0629 -0.651143,-0.13069 -1.425938,-0.4539 -1.768147,-1.89653 -2.378976,-3.10612 -0.584591,-1.15742 -1.311835,-2.34329 -2.457391,-3.02298 -1.095592,-0.65115 -2.575013,-0.79853 -3.776364,-0.34463 -1.256041,0.47411 -1.959459,1.3796 -2.615427,2.50726 -0.368347,0.63455 -0.721313,1.33797 -1.106248,2.03074 -0.125966,0.0582 -0.213931,0.19252 -0.181761,0.322 -0.825866,1.43187 -1.825149,2.75918 -3.435361,3.24877 -0.825866,0.25073 -1.687321,0.31014 -2.470461,-0.12476 -0.841347,-0.46938 -1.314247,-1.20487 -1.847768,-1.98087 -0.840141,-1.22156 -1.667113,-2.57974 -3.164429,-3.05384 -1.278559,-0.40404 -2.677153,-0.22107 -3.709812,0.67014 -1.155006,0.99577 -1.647007,2.46925 -2.540531,3.6706 -0.563278,0.75811 -1.240558,1.63746 -2.255322,1.71939 -0.373073,0.0309 -0.745039,0.0249 -1.117006,-0.0178 -0.109277,-0.0131 -0.200861,-0.20558 -0.349346,-0.24952 -0.81511,-0.24007 -1.3808,-0.89121 -2.020079,-1.41528 -0.0012,0 -0.0012,0 -0.0012,-0.002 -0.02373,-0.019 -0.04634,-0.038 -0.07007,-0.057 -0.118827,-0.0951 -0.266207,-0.14969 -0.402829,-0.21393 -0.06414,-0.0677 -0.135416,-0.13069 -0.216243,-0.18658 -0.02373,-0.0166 -0.04986,-0.0262 -0.0761,-0.0333 -0.95897,-0.72846 -2.012941,-1.26077 -3.20243,-1.49722 -1.328021,-0.26038 -2.744509,-0.38202 -4.091631,-0.44234 z m 4.773235,2.7998 c -1.157419,-0.0903 -1.626801,-0.86507 -1.713459,-1.92498 0.724832,0.088 1.442526,0.23293 2.118701,0.50859 0.438518,0.17825 0.841348,0.41469 1.222764,0.6797 0.02373,0.0867 0.08796,0.16045 0.203174,0.18778 0.04876,0.0119 0.09028,0.0309 0.127172,0.0535 0.04283,0.0309 0.08435,0.0629 0.125966,0.0951 0.05348,0.0499 0.103347,0.10335 0.163967,0.14969 -0.742927,0.15784 -1.49993,0.30863 -2.247883,0.25033 z m 10.22807,0.85452 c -0.411173,0.35528 -1.444938,0.89593 -1.95232,0.45983 0.546589,-0.42897 0.994558,-1.02191 1.37718,-1.57684 0.292346,-0.42303 0.564484,-0.93042 0.85673,-1.44253 0.32371,0.81129 0.415195,1.95735 -0.281489,2.56054 z m 5.790613,-4.54905 v -0.007 c 0.02021,0.0143 0.04042,0.0286 0.05941,0.0439 0.841348,0.64401 1.385525,1.59826 1.979666,2.4574 0.03448,0.0499 0.06897,0.0986 0.10224,0.14859 -0.678486,0.43369 -1.327317,0.44203 -1.719389,-0.41591 -0.314664,-0.69065 -0.4162,-1.47479 -0.422232,-2.22677 z m 8.285804,4.00316 c 0.175829,-0.12235 0.344621,-0.25424 0.503863,-0.39569 0.742626,-0.6619 1.29756,-1.45801 1.791873,-2.29935 0.652348,0.74383 0.809178,1.74914 -0.01779,2.52153 -0.652449,0.61223 -1.631626,0.82033 -2.277037,0.17391 z m 7.800236,-4.66969 c -1.294041,-0.36834 -1.453283,-1.69566 -1.57563,-2.85307 0.829385,-0.21745 1.746734,-0.17111 2.506049,0.10454 0.257862,0.0951 0.497932,0.22108 0.720106,0.37308 0.0035,0.007 0.0059,0.0155 0.0095,0.0226 0.295863,0.54066 0.539451,1.31667 0.150897,1.88105 -0.392073,0.56901 -1.186271,0.64943 -1.810572,0.4715 z m 10.551782,4.24445 c -0.935143,0.43851 -2.301667,0.63455 -2.755668,-0.36604 0.506176,-0.0119 1.011246,-0.10697 1.48294,-0.28039 1.308316,-0.48486 2.466841,-1.22989 3.417467,-2.18284 -0.0061,1.25263 -1.040501,2.31122 -2.144337,2.82896 z M 79.29027,144.56257 c -0.376692,-1.02432 -0.658281,-2.16032 -0.708245,-3.28919 0.137829,-0.0808 0.256657,-0.17824 0.37076,-0.31014 0.148586,-0.17472 0.26852,-0.4919 0.481244,-0.59535 0.798522,-0.38734 1.124143,1.12646 1.206076,1.62439 0.192518,1.155 0.221069,2.75919 -1.119317,3.13829 -0.08344,-0.18699 -0.161856,-0.37598 -0.232227,-0.569 z m 4.81043,9.52435 c -0.169898,-0.74624 -0.424243,-1.47228 -0.730764,-2.17691 1.387938,-0.31365 2.919636,-0.11531 3.020569,1.65053 0.101034,1.75869 -0.62983,3.56484 -2.292218,4.19226 0.257361,-1.20537 0.282494,-2.44493 0.002,-3.66639 z m 8.871399,-19.32516 c -0.354072,-0.37076 -0.373072,-1.12294 -0.196036,-1.57804 0.246001,-0.62984 1.12173,-0.53122 1.377181,0.0357 0.381416,0.84607 -0.230519,2.01415 -1.100318,1.70038 -0.0083,-0.0542 -0.03328,-0.10756 -0.08083,-0.15783 z"
         inkscape:connector-curvature="0"
         style="fill:#231f20;stroke-width:0.26458332" />
      <path
         id="path1009"
         d="m 31.972108,163.2556 c -0.129484,-0.01 -0.679692,-0.0974 -0.640486,0.18889 0.038,0.27566 0.295865,0.52046 0.480039,0.70343 0.711762,0.70583 1.689733,1.20376 2.547668,1.70279 0.9459,0.54901 1.856112,1.1336 2.74853,1.76695 1.184764,0.84135 2.389633,1.69214 3.7264,2.24104 0.105759,-0.0998 0.273345,-0.13189 0.405242,0 0.0939,0.0939 0.194831,0.17704 0.298277,0.25545 0.326728,0.10335 0.663106,0.1878 1.008833,0.24721 0.182968,0.0309 0.237657,0.18176 0.205587,0.322 0.937557,0.23052 1.990322,0.11642 2.87329,-0.20438 1.346317,-0.49079 2.247079,-1.80021 3.046707,-2.9137 0.701106,-0.97676 1.334454,-1.88818 2.664083,-1.82515 1.063523,0.0499 2.102113,0.82114 2.510874,1.79308 0.274451,0.65707 0.484864,1.33918 0.791384,1.98329 0.418311,0.88055 1.007627,1.37004 1.92387,1.69093 1.683802,0.59063 3.514882,0.20438 5.150027,-0.35055 0.773589,-0.26259 1.586386,-0.54779 2.274323,-0.99455 0.784246,-0.50859 1.269109,-1.33677 1.604181,-2.18405 0.55252,-1.39739 0.827072,-2.88867 1.943976,-3.97603 0.368348,-0.36 0.962488,-0.69155 1.497216,-0.53472 0.682106,0.19966 1.09911,0.84728 1.467558,1.42121 0.392173,0.61073 0.698694,1.27263 1.100317,1.87984 0.439624,0.6631 1.071866,1.18235 1.761009,1.54598 0.748658,0.39569 1.374869,0.85914 2.192391,1.13721 0.914937,0.31134 1.902457,0.43017 2.863739,0.45872 1.72894,0.0511 3.618329,-0.32793 5.169026,-1.09439 3.185742,-1.57804 4.959921,-4.83506 5.582512,-8.22528 0.625005,-3.40912 -0.04876,-6.93838 -1.382006,-10.09838 -0.530001,-1.25484 -1.179938,-2.45618 -1.896526,-3.6136 -0.724831,-1.1716 -1.737284,-2.23512 -2.334943,-3.47457 -0.09621,-0.19966 -0.169898,-0.4337 -0.179449,-0.65597 -0.01186,-0.26028 -0.135416,-0.35769 -0.242381,-0.57987 -0.187793,-0.39097 -0.149692,-0.9851 -0.03207,-1.38915 0.216244,-0.74503 0.970832,-1.21914 1.702802,-1.46755 -0.383829,-0.52286 -0.665418,-1.08966 -0.798521,-1.66239 -0.08796,-0.37307 0.485969,-0.53121 0.572728,-0.15803 0.135416,0.58348 0.450381,1.16807 0.879348,1.69445 0.108172,0.0357 0.180655,0.13311 0.204381,0.23766 1.217938,1.33566 3.172672,2.20546 4.740058,1.53291 -1.222764,-0.64763 -2.314736,-1.5685 -3.112051,-2.69626 -0.09149,0.0915 -0.24952,0.10928 -0.360004,0.044 -0.147379,-0.0856 -0.178242,-0.26139 -0.106966,-0.40635 0.211519,-0.42424 0.471794,-0.85794 1.013559,-0.78194 0.160448,0.0227 0.246,0.22459 0.207899,0.36483 -0.04756,0.1699 -0.201968,0.22931 -0.36121,0.20911 0.02735,0.005 -0.019,0.0119 -0.02021,0.01 -0.0047,0.002 -0.0095,0.006 -0.019,0.0119 -0.0035,0.002 -0.0047,0.002 -0.0083,0.005 0.743832,1.136 1.960665,2.23632 3.331914,2.92195 0.178242,-0.11048 0.346934,0.0143 0.394486,0.18176 0.973245,0.41941 2.005803,0.62028 2.990911,0.4729 1.35818,-0.20438 2.35877,-1.33676 2.11277,-2.71878 -0.182968,-1.02662 -0.85673,-1.95945 -1.55663,-2.72591 -0.0951,-0.0178 -0.177035,-0.0831 -0.205587,-0.2079 -0.0012,-0.006 -0.0024,-0.0119 -0.0035,-0.019 -0.08083,-0.0962 -0.08555,-0.2068 -0.04514,-0.29949 -0.0083,-0.0951 -0.01186,-0.1889 -0.01066,-0.284 -0.06062,0.11641 -0.131898,0.2258 -0.215037,0.32442 -0.598867,0.70703 -1.452077,0.61554 -2.135289,0.0868 -0.148585,-0.11532 -0.121241,-0.27446 -0.019,-0.37912 -0.301795,-0.63575 -0.254243,-1.50194 0.08203,-2.07234 0.480037,-0.81512 1.723009,-0.63577 2.207872,0.0451 0.144966,0.20317 0.23645,0.44083 0.280483,0.68924 0.0178,-0.0772 0.03448,-0.15562 0.05228,-0.23293 0.155623,-0.71177 0.105759,-1.6077 -0.676174,-1.90477 -0.451588,-0.17231 -1.00049,-0.14024 -1.461628,-0.0368 -0.418311,0.0951 -0.711762,0.37911 -1.095592,0.53121 -0.601278,0.23766 -0.920868,-0.25666 -1.112179,-0.76886 -0.15331,-0.41239 -0.251932,-0.8128 -0.564384,-1.13953 -0.36714,-0.38383 -0.998177,-0.51814 -1.503146,-0.53121 -0.949419,-0.0237 -1.455596,0.91735 -1.890595,1.61374 -0.428967,0.68683 -1.026627,1.57924 -1.768148,2.12221 -0.0095,0.10697 -0.07369,0.20559 -0.209105,0.24007 -2.900634,0.73439 -5.084681,3.0646 -5.838063,5.93306 -0.104553,0.39932 -0.163967,0.80919 -0.188899,1.22277 0.13431,-0.17583 0.248313,-0.3791 0.40283,-0.52166 0.272138,-0.24952 0.623798,-0.24952 0.963695,-0.18538 0.847279,0.16045 1.132386,1.36773 1.258352,2.0605 0.259069,1.44142 0.159242,3.34025 -1.436595,3.8405 0.634555,1.2667 1.475802,2.42884 2.212597,3.63733 0.40283,0.65949 0.787865,1.34159 1.126455,2.04501 0.80204,-0.208 1.669526,-0.31134 2.458598,-0.0107 0.848385,0.32199 1.267902,1.12293 1.384318,1.98086 0.294657,2.16978 -0.844867,4.53448 -3.031326,5.10368 -0.05469,0.19252 -0.115308,0.38263 -0.18176,0.57274 -0.38383,1.09086 -0.950626,2.07356 -1.666008,2.92435 0.346934,1.80022 -1.013558,3.32961 -2.579737,4.01995 -1.282179,0.5668 -3.091946,0.53715 -3.500707,-1.00049 -0.451587,-0.0546 -0.89473,-0.17703 -1.303491,-0.37196 -1.155007,-0.55373 -1.537629,-1.92146 -2.05808,-2.9885 -0.335072,-0.68683 -0.735589,-1.42945 -1.254834,-2.04742 0.141448,1.15621 -0.489588,2.20073 -1.938045,2.23039 -0.860349,0.0178 -1.650527,-0.37076 -2.135289,-1.07538 -0.437312,-0.63577 -0.532314,-1.47822 -0.609623,-2.24709 -0.450381,0.20197 -0.850798,0.49552 -1.151487,0.89122 -0.748658,0.9839 -1.294041,2.10914 -1.894113,3.19408 1.005314,0.99104 1.147867,2.40984 0.0939,3.48281 -0.91735,0.93515 -2.346807,1.01356 -3.21188,0.0665 -0.709451,0.38141 -1.510284,0.60369 -2.306493,0.59414 -0.644005,-0.007 -1.264284,-0.25786 -1.80263,-0.59173 -0.49552,-0.30772 -0.853211,-0.73076 -1.182351,-1.18708 -0.761727,0.50739 -1.690939,0.65829 -2.311218,-0.17582 -0.608416,-0.81753 -0.755796,-1.96308 -0.764039,-2.95522 -0.0012,-0.14025 0.07721,-0.22811 0.177036,-0.26621 -0.645211,-0.33508 -1.374869,-0.43962 -2.111563,-0.37307 -1.219145,0.11168 -1.98801,1.00531 -2.617739,2.01645 0.01307,0.0166 0.02493,0.0357 0.03679,0.057 0.569209,1.12173 0.682105,2.71877 -0.35176,3.61361 -0.692762,0.60007 -2.094975,1.06946 -2.788843,0.29234 -0.52407,0.27214 -1.292835,0.36956 -1.938046,0.29708 -0.06293,0.0487 -0.147379,0.07 -0.248312,0.0357 -0.973246,-0.32673 -1.762217,-0.94942 -2.539325,-1.59584 -0.134309,0.0606 -0.313658,0.0345 -0.396898,-0.11531 -1.006521,0.208 -2.028424,0.42897 -3.052739,0.27928 -1.315454,-0.19131 -1.827561,-1.33798 -1.904769,-2.53219 -0.201968,-0.0166 -0.404036,-0.0309 -0.604797,-0.044 -0.626311,-0.0392 -1.241564,-0.13169 -1.861843,-0.17593 z M 88.09782,134.07131 c -1.589905,-0.0286 -1.082523,-3.35333 0.29114,-3.60877 1.109867,-0.2068 1.781216,0.96369 1.6648,1.91904 -0.120638,0.99486 -0.925894,1.90185 -1.956342,1.68973 z m 4.700751,4.56313 c -0.05228,-0.15331 0.05821,-0.32442 0.207899,-0.36483 0.16276,-0.0452 0.312552,0.0534 0.364829,0.20679 0.0035,0.01 0.0071,0.019 0.01066,0.0297 0.0024,0.006 0.0059,0.0131 0.0083,0.0178 0.0035,0.007 0.0083,0.0143 0.01307,0.0214 0.0059,0.008 0.01548,0.0202 0.02141,0.0262 0.11169,0.11641 0.115309,0.30421 0,0.42062 -0.112897,0.1129 -0.307727,0.11642 -0.420624,0 -0.09983,-0.10455 -0.159242,-0.22217 -0.205587,-0.35789 z m 2.41939,0.87864 c -0.08907,-0.1521 -0.02262,-0.30894 0.106965,-0.40635 0.124761,-0.0927 0.248314,-0.18659 0.387348,-0.25786 0.14376,-0.0749 0.320796,-0.0392 0.406349,0.10575 0.07841,0.13432 0.03679,0.33276 -0.106966,0.40756 -0.137828,0.0712 -0.262588,0.16397 -0.387348,0.25787 -0.129484,0.0985 -0.331552,0.0221 -0.406348,-0.10556 z"
         inkscape:connector-curvature="0"
         style="fill:#4e9a06;stroke-width:0.26458332" />
      <path
         id="path1011"
         d="m 35.031281,163.53608 c 0.08676,1.0599 0.55614,1.8347 1.713459,1.92497 0.748657,0.0582 1.505558,-0.0927 2.248184,-0.25072 -0.06062,-0.0464 -0.110484,-0.0998 -0.163967,-0.1497 -0.04162,-0.0321 -0.08314,-0.0641 -0.125965,-0.0951 -0.03679,-0.0227 -0.07841,-0.0416 -0.127173,-0.0535 -0.115309,-0.0274 -0.179448,-0.10104 -0.203174,-0.1878 -0.381416,-0.265 -0.784246,-0.50144 -1.222764,-0.67969 -0.675571,-0.27546 -1.393366,-0.42022 -2.118198,-0.50869 z"
         inkscape:connector-curvature="0"
         style="fill:#73d216;stroke-width:0.26458332" />
      <path
         id="path1013"
         d="m 45.021093,166.77521 c 0.507382,0.4361 1.541248,-0.10456 1.952321,-0.45983 0.69628,-0.60249 0.604797,-1.74916 0.281589,-2.55954 -0.292346,0.51211 -0.564485,1.01959 -0.85673,1.44253 -0.382019,0.55493 -0.83039,1.14706 -1.377281,1.57633 z"
         inkscape:connector-curvature="0"
         style="fill:#73d216;stroke-width:0.26458332" />
      <path
         id="path1015"
         d="m 52.764026,161.75969 v 0.007 c 0.0059,0.75217 0.106966,1.53642 0.42183,2.22687 0.392173,0.85793 1.040903,0.84959 1.71939,0.41589 -0.03328,-0.0499 -0.06776,-0.0986 -0.102241,-0.14858 -0.59414,-0.85914 -1.138418,-1.81328 -1.979665,-2.45739 -0.0191,-0.0161 -0.03921,-0.0301 -0.05931,-0.0443 z"
         inkscape:connector-curvature="0"
         style="fill:#73d216;stroke-width:0.26458332" />
      <path
         id="path1017"
         d="m 61.554498,165.3748 c -0.159242,0.14144 -0.327934,0.27335 -0.503864,0.3957 0.645211,0.64641 1.624387,0.43851 2.277942,-0.17353 0.827072,-0.77238 0.670143,-1.7777 0.0178,-2.52153 -0.495621,0.84044 -1.050555,1.63665 -1.792476,2.29916 z"
         inkscape:connector-curvature="0"
         style="fill:#73d216;stroke-width:0.26458332" />
      <path
         id="path1019"
         d="m 67.274738,158.24712 c 0.122347,1.15742 0.281588,2.48474 1.57563,2.85308 0.623898,0.17825 1.4188,0.0974 1.810974,-0.47179 0.388554,-0.56449 0.144966,-1.34039 -0.150898,-1.88105 -0.0035,-0.007 -0.0059,-0.0155 -0.0095,-0.0226 -0.222174,-0.1521 -0.462244,-0.27807 -0.720107,-0.37307 -0.759013,-0.27646 -1.675859,-0.32271 -2.505244,-0.10555 z"
         inkscape:connector-curvature="0"
         style="fill:#73d216;stroke-width:0.26458332" />
      <path
         id="path1021"
         d="m 76.646281,164.9787 c 0.4539,1.00049 1.820424,0.80446 2.755668,0.36604 1.103936,-0.51814 2.137701,-1.57684 2.144839,-2.82926 -0.950626,0.95304 -2.109151,1.69808 -3.417466,2.18285 -0.471494,0.17391 -0.976161,0.26841 -1.48284,0.28048 z"
         inkscape:connector-curvature="0"
         style="fill:#73d216;stroke-width:0.26458332" />
      <path
         id="path1023"
         d="m 78.582517,141.27338 c 0.04986,1.12887 0.331553,2.26488 0.708244,3.2892 0.07007,0.19251 0.148486,0.38141 0.230519,0.568 1.340386,-0.3791 1.311835,-1.98329 1.119317,-3.13829 -0.08203,-0.49793 -0.407554,-2.01173 -1.206076,-1.62439 -0.212724,0.10334 -0.332759,0.42063 -0.481244,0.59535 -0.112595,0.1327 -0.231222,0.23021 -0.368951,0.31063 z"
         inkscape:connector-curvature="0"
         style="fill:#73d216;stroke-width:0.26458332" />
      <path
         id="path1025"
         d="m 83.369825,151.90962 c 0.306621,0.70462 0.560866,1.43066 0.730764,2.1769 0.280483,1.22156 0.25545,2.46091 -0.0024,3.66589 1.662388,-0.62742 2.393151,-2.43357 2.292218,-4.19227 -0.101537,-1.76533 -1.633636,-1.96438 -3.020971,-1.65073 z"
         inkscape:connector-curvature="0"
         style="fill:#73d216;stroke-width:0.26458332" />
      <path
         id="path1027"
         d="m 88.403436,131.06884 c -0.611935,0.17351 -0.97797,2.09729 -0.415899,2.37656 0.03328,-0.002 0.06897,0.002 0.108172,0.0131 0.03448,0.0107 0.06775,0.0178 0.102241,0.0249 0.02021,0.003 0.038,0.008 0.05589,0.0143 1.537126,0.27806 1.603477,-2.84002 0.148787,-2.42885 z m -0.291541,1.37366 c -0.0047,-0.11883 0.05107,-0.23173 0.127172,-0.31848 0.136622,-0.15924 0.392173,-0.18176 0.549002,-0.0452 0.0951,0.0286 0.174724,0.10224 0.200862,0.20318 0.05228,0.2079 -0.03679,0.38976 -0.206793,0.50738 -0.07007,0.0499 -0.161654,0.0665 -0.246001,0.0725 -0.115309,0.007 -0.21393,-0.0487 -0.299483,-0.11762 -0.08746,-0.07 -0.119632,-0.19604 -0.124659,-0.30179 z"
         inkscape:connector-curvature="0"
         style="fill:#eeeeec;stroke-width:0.26458332" />
      <path
         id="path1029"
         d="m 88.388356,130.46283 c -1.373662,0.25546 -1.881044,3.58033 -0.291139,3.60879 1.030246,0.21151 1.835905,-0.69518 1.95594,-1.68974 0.116617,-0.95505 -0.554933,-2.12554 -1.664801,-1.91875 z m -0.40112,2.98257 c -0.562072,-0.27927 -0.196037,-2.20305 0.415898,-2.37656 1.454489,-0.41118 1.389144,2.70691 -0.149691,2.42884 -0.0178,-0.006 -0.03569,-0.0107 -0.05589,-0.0143 -0.03448,-0.007 -0.06775,-0.0143 -0.102241,-0.0249 -0.03821,-0.0119 -0.07439,-0.0155 -0.107568,-0.0131 z"
         inkscape:connector-curvature="0"
         style="fill:#231f20;stroke-width:0.26458332" />
      <path
         id="path1031"
         d="m 88.23957,132.12402 c -0.076,0.0867 -0.131897,0.19965 -0.127173,0.31848 0.0047,0.10576 0.03679,0.23173 0.12476,0.30179 0.08555,0.0689 0.184174,0.12477 0.299484,0.11763 0.08434,-0.006 0.175828,-0.0227 0.246,-0.0725 0.169898,-0.11762 0.25907,-0.29948 0.206793,-0.50738 -0.02613,-0.10104 -0.10576,-0.17473 -0.200862,-0.20317 -0.157835,-0.13662 -0.413184,-0.1141 -0.549907,0.0451 z"
         inkscape:connector-curvature="0"
         style="fill:#231f20;stroke-width:0.26458332" />
      <path
         id="path1033"
         d="m 92.776052,133.18392 c -0.177035,0.4551 -0.158036,1.20729 0.196036,1.57804 0.04755,0.0499 0.07249,0.10335 0.08083,0.15803 0.869798,0.31367 1.481834,-0.8544 1.100317,-1.70038 -0.255451,-0.5666 -1.131281,-0.66522 -1.377181,-0.0355 z m 0.2269,0.87131 c -0.076,-0.21032 0.04041,-0.48004 0.244794,-0.57042 0.114103,-0.051 0.227,-0.07 0.350553,-0.0368 0.118828,0.0309 0.231725,0.12355 0.282795,0.23524 0.06655,0.14617 0.04283,0.31607 -0.104553,0.40403 -0.03679,0.0725 -0.0951,0.13311 -0.162761,0.17945 -0.0951,0.0653 -0.218655,0.0844 -0.329139,0.0594 -0.140241,-0.0312 -0.234138,-0.14276 -0.281689,-0.27043 z"
         inkscape:connector-curvature="0"
         style="fill:#eeeeec;stroke-width:0.26458332" />
      <path
         id="path1035"
         d="m 93.00657,138.2695 c -0.149691,0.0404 -0.260275,0.21152 -0.207898,0.36483 0.04634,0.13542 0.105758,0.25315 0.205586,0.35769 0.112898,0.11642 0.307727,0.11291 0.420624,0 0.11531,-0.11641 0.11169,-0.3042 0,-0.42062 -0.0059,-0.006 -0.01548,-0.0178 -0.02141,-0.0262 -0.0047,-0.007 -0.0095,-0.0143 -0.01307,-0.0214 -0.0024,-0.005 -0.0059,-0.0119 -0.0083,-0.0178 -0.0035,-0.0107 -0.0071,-0.0202 -0.01066,-0.0297 -0.05237,-0.15281 -0.202068,-0.25233 -0.364829,-0.20709 z"
         inkscape:connector-curvature="0"
         style="fill:#231f20;stroke-width:0.26458332" />
      <path
         id="path1037"
         d="m 93.247746,133.48461 c -0.204381,0.0903 -0.320796,0.36 -0.244794,0.57041 0.04756,0.12838 0.141448,0.24008 0.281588,0.27094 0.110484,0.025 0.234138,0.006 0.32914,-0.0594 0.06776,-0.0464 0.125966,-0.10696 0.16276,-0.17945 0.14738,-0.088 0.171105,-0.25787 0.104554,-0.40403 -0.05107,-0.11169 -0.163967,-0.20439 -0.282796,-0.23525 -0.123452,-0.0336 -0.236349,-0.0144 -0.350452,0.0366 z m -0.0095,0.47008 c 0.0059,0.0119 0.01307,0.0249 0.02021,0.0368 0.0083,0.0119 0.01548,0.0227 0.02493,0.0345 -0.01066,-0.0131 -0.019,-0.0237 -0.02493,-0.0345 -0.0095,-0.0131 -0.01669,-0.0251 -0.02021,-0.0372 z"
         inkscape:connector-curvature="0"
         style="fill:#231f20;stroke-width:0.26458332" />
      <path
         id="path1039"
         d="m 95.324926,139.10593 c -0.129484,0.0974 -0.196035,0.25424 -0.106965,0.40635 0.0749,0.12838 0.276864,0.20438 0.406348,0.10696 0.12476,-0.0939 0.24952,-0.18659 0.387348,-0.25786 0.14376,-0.0749 0.18538,-0.27334 0.106966,-0.40755 -0.08555,-0.14498 -0.262589,-0.18066 -0.406349,-0.10576 -0.139034,0.0714 -0.262587,0.16486 -0.387348,0.25736 z"
         inkscape:connector-curvature="0"
         style="fill:#231f20;stroke-width:0.26458332" />
    </g>
  </g>
</svg>
